<svg id="Capa_1" data-name="Capa 1" xmlns="http://www.w3.org/2000/svg" viewBox="22.61 35.58 39 28.74">   <defs>     <style>       .cls-3{fill:#fff;}     </style>   </defs>   <path class="cls-3" d="M37.9,49.78l-3.48-6.7s-1.05-2.27-2-2.85a3,3,0,0,1-4.19,0c-1,.58-2,2.81-2,2.85l-3.48,6.7a1.1,1.1,0,0,0,.27,1.39,1.07,1.07,0,0,0,1.59-.36l1.81-3.49.49,7.54v8A1.39,1.39,0,0,0,28,64.31,1.34,1.34,0,0,0,29.5,63V54.86h1.57v8a1.39,1.39,0,0,0,1.2,1.41A1.34,1.34,0,0,0,33.74,63V54.86l.49-7.54L36,50.81a1.07,1.07,0,0,0,1.59.36A1.1,1.1,0,0,0,37.9,49.78Z"></path>   <path class="cls-3" d="M30.28,35.58a2.33,2.33,0,1,0,2.33,2.33A2.32,2.32,0,0,0,30.28,35.58Z"></path>   <path class="cls-3" d="M47,50.43a.61.61,0,0,0-.85.19L43.94,54a2.3,2.3,0,0,0-.42-.35,1.91,1.91,0,0,1-2.66,0,2,2,0,0,0-.41.35l-2.16-3.37a.62.62,0,1,0-1,.66l2.58,4c0,.11.36,4.2.36,4.2v4a.78.78,0,0,0,1.55,0v-4h.9v4a.77.77,0,0,0,.78.77.76.76,0,0,0,.77-.77v-4s.38-4.09.37-4.2l2.57-4A.62.62,0,0,0,47,50.43Z"></path>   <path class="cls-3" d="M42.19,50.74a1.52,1.52,0,1,0,1.52,1.52A1.52,1.52,0,0,0,42.19,50.74Z"></path>   <path class="cls-3" d="M61.45,49.78,58,43.08s-1-2.27-2-2.85a3,3,0,0,1-2.1.87,2.91,2.91,0,0,1-2.09-.87c-1,.58-2,2.81-2.05,2.85l-3.48,6.7a1.1,1.1,0,0,0,.28,1.39,1.06,1.06,0,0,0,1.58-.36L49,49,47.61,59h2.77V62.9a1.39,1.39,0,0,0,1.19,1.41A1.34,1.34,0,0,0,53.05,63V59h1.56V62.9a1.4,1.4,0,0,0,1.2,1.41A1.34,1.34,0,0,0,57.29,63V59h2.77L58.63,49l1,1.85a1.07,1.07,0,0,0,1.59.36A1.11,1.11,0,0,0,61.45,49.78Z"></path>   <circle class="cls-3" cx="53.83" cy="37.91" r="2.33"></circle> </svg>