<svg xmlns="http://www.w3.org/2000/svg" viewBox="59.8 24.78 69.08 114.55">   <style>     .cls-1{fill:#fff;}   </style>   <path class="cls-1" d="M108.31,111.43h-14v-14a4.63,4.63,0,0,0-9.26,0v14h-14a4.64,4.64,0,1,0,0,9.27h14v14a4.63,4.63,0,1,0,9.26,0v-14h14a4.64,4.64,0,0,0,0-9.27Z"></path>   <path class="cls-1" d="M89.68,39.67a29.88,29.88,0,1,0,29.88,29.88A29.88,29.88,0,0,0,89.68,39.67Zm13.09,41.08H76.59a3.86,3.86,0,1,1,0-7.72h26.18a3.86,3.86,0,0,1,0,7.72Zm0-14.67H76.59a3.87,3.87,0,0,1,0-7.73h26.18a3.87,3.87,0,0,1,0,7.73Z"></path>   <path class="cls-1" d="M128.8,43.42l-2.61-15.29a4.49,4.49,0,0,0-.49-1.37,4.48,4.48,0,0,0-.89-1.06,4.68,4.68,0,0,0-1.17-.66,4.79,4.79,0,0,0-1.39-.25H107.17a4.64,4.64,0,1,0,0,9.27h4.77L100.19,48.14A4.63,4.63,0,1,0,107.41,54l11.38-14.13.88,5.16a4.62,4.62,0,0,0,4.56,3.85,4.29,4.29,0,0,0,.79-.07A4.62,4.62,0,0,0,128.8,43.42Z"></path> </svg>