<svg xmlns="http://www.w3.org/2000/svg" viewBox="40.33 38.44 82.43 83.33">   <style>     .cls-1 { fill: none; stroke: #fff; stroke-miterlimit: 10; }     .cls-2 { fill: #fff; }   </style>    <polygon class="cls-1" points="101.9 74.2 101.9 50.69 81.54 38.94 61.18 50.69 61.18 74.2 81.54 85.95 101.9 74.2"></polygon>   <polygon class="cls-1" points="81.54 109.52 81.54 86.01 61.18 74.26 40.83 86.01 40.83 109.52 61.18 121.27 81.54 109.52"></polygon>   <polygon class="cls-1" points="81.54 109.52 81.54 86.01 101.9 74.26 122.26 86.01 122.26 109.52 101.9 121.27 81.54 109.52"></polygon>    <polygon class="cls-2" points="101.9 50.69 81.54 62.44 61.18 50.69 81.54 38.94 101.9 50.69"></polygon>   <polygon class="cls-2" points="61.18 121.27 61.18 97.76 40.83 86.01 40.83 109.52 61.18 121.27"></polygon>   <polygon class="cls-2" points="101.9 121.27 101.9 97.76 122.26 86.01 122.26 109.52 101.9 121.27"></polygon> </svg>