<svg id="Capa_1" data-name="Capa 1" xmlns="http://www.w3.org/2000/svg" viewBox="26.47 40.94 40.14 27.25">   <defs>     <style>       .cls-4 { fill: #fff; }     </style>   </defs>   <path class="cls-4" d="M32.2,57.45a5.58,5.58,0,0,0,3.14-1v8H37v-8a5.57,5.57,0,1,0,3.7-10.15,5.07,5.07,0,0,0,0-.56,4.59,4.59,0,1,0-9.17,0,5.07,5.07,0,0,0,.05.56,5.57,5.57,0,0,0,.56,11.12Z"></path>   <path class="cls-4" d="M41.82,65.08H30.53a2.94,2.94,0,0,0-2.84,2.19l-.24.92H44.9l-.24-.92A2.94,2.94,0,0,0,41.82,65.08Z"></path>   <path class="cls-4" d="M61,50.49l.09,0a1.81,1.81,0,0,0,.91-.23c.26-.12.5-.27.76-.39a1.69,1.69,0,0,1,.44-.12,4.28,4.28,0,0,0,1-.3,2.22,2.22,0,0,0,.93-.76,1.22,1.22,0,0,0,.13-.46l.15-.76a.68.68,0,0,1,.23-.32.36.36,0,0,1,.27-.06l.12,0a.42.42,0,0,0,0-.12.87.87,0,0,0-.08-.1,1.91,1.91,0,0,0,.39-.78,6.77,6.77,0,0,0,.26-1.4,3.54,3.54,0,0,0,0-.46.25.25,0,0,0,0-.11l-.1.07a2.45,2.45,0,0,0,0-.27,1.81,1.81,0,0,0,0-.23s0,0,0-.07-.05,0-.06.06-.11.26-.16.39a.34.34,0,0,0,0,.08,1.37,1.37,0,0,0-.07-.24.41.41,0,0,0,0-.09s-.06,0-.07.08l-.15.33a.39.39,0,0,0-.06-.11s0,0-.06,0,0,0-.06,0-.08.23-.13.35a.53.53,0,0,1-.06.14s-.06.08-.12,0a.09.09,0,0,0-.14,0,1.59,1.59,0,0,0-.13.22s0,.09,0,.14a.36.36,0,0,1-.15.2.69.69,0,0,0-.17.17c-.17.29-.34.58-.5.87s-.16.43-.25.64-.12.23-.19.36l-.23-.15c-.62-.43-1.2-.91-1.78-1.4a5,5,0,0,1-.73-.73,4.9,4.9,0,0,1-.63-1.17,10.57,10.57,0,0,1-.31-1.1l0-.08a.12.12,0,0,0-.05,0s0,0,0,.06a1.93,1.93,0,0,0,0,.24c0,.13,0,.26,0,.4-.06-.09,0-.22-.16-.3a.65.65,0,0,0,0,.11c0,.14.05.28.08.42a.16.16,0,0,1,0,.07c0-.05,0-.1-.08-.14s0,0-.06,0,0,0,0,.07.06.22.1.34l0,.08h0l-.11-.06a.53.53,0,0,0,0,.13,1.66,1.66,0,0,0,.06.21h0l-.11,0v.12a2.53,2.53,0,0,1,0,.28,2.12,2.12,0,0,0,.22,1.19A6.2,6.2,0,0,0,61.65,48a2.64,2.64,0,0,0,1.09.49s0,0,0,0L62.3,49a1,1,0,0,1-.51.3l-1.09.39-.23.1s-.07.06,0,.13a.09.09,0,0,1,0,.1.11.11,0,0,0,0,.16.34.34,0,0,1,.09.12c0,.08.13.08.2.1a.26.26,0,0,1,.09.05Z"></path>   <path class="cls-4" d="M49.6,58.49h.06a1,1,0,0,0,.56-.14c.16-.08.32-.17.48-.24A1.2,1.2,0,0,1,51,58a2.6,2.6,0,0,0,.62-.18,1.5,1.5,0,0,0,.58-.48.83.83,0,0,0,.08-.28c0-.16.06-.32.1-.47a.43.43,0,0,1,.14-.21.22.22,0,0,1,.16,0h.08l0-.08-.05-.06a1.3,1.3,0,0,0,.25-.48,5.24,5.24,0,0,0,.16-.88c0-.09,0-.19,0-.28s0,0,0-.07l-.06.05c0-.06,0-.12,0-.18s0-.09,0-.13a.09.09,0,0,0,0,0s0,0,0,0l-.09.24,0,.05a1.13,1.13,0,0,1,0-.15l0-.05,0,.05-.1.2,0-.07,0,0,0,0a2,2,0,0,0-.08.22.59.59,0,0,0,0,.08s0,0-.08,0-.06,0-.09,0l-.08.13,0,.09a.22.22,0,0,1-.09.13.24.24,0,0,0-.1.1,6,6,0,0,0-.31.55,2.38,2.38,0,0,0-.16.4c0,.07-.08.14-.12.22l-.14-.1A11.47,11.47,0,0,1,50,55.49a3.19,3.19,0,0,1-.45-.45,3.23,3.23,0,0,1-.4-.73c-.08-.22-.13-.45-.19-.68a.08.08,0,0,0,0-.05s0,0,0,0,0,0,0,0a.86.86,0,0,0,0,.16l0,.24s0-.13-.1-.18,0,0,0,.06,0,.18,0,.26v.05l0-.09,0,0s0,0,0,0l.06.21,0,0h0l-.07,0v.08s0,.08,0,.12h0l-.07,0v.08c0,.06,0,.12,0,.17a1.35,1.35,0,0,0,.14.74A3.78,3.78,0,0,0,50,57a1.63,1.63,0,0,0,.68.31l0,0-.26.31a.65.65,0,0,1-.31.18l-.68.24a.61.61,0,0,0-.14.07s0,0,0,.07a.09.09,0,0,1,0,.07.07.07,0,0,0,0,.1l.05.07c0,.05.08.05.13.07l.05,0Z"></path>   <path class="cls-4" d="M50.91,50.2H51a1.91,1.91,0,0,0,.85-.21c.24-.12.46-.26.71-.37a1.4,1.4,0,0,1,.4-.11,4.17,4.17,0,0,0,.93-.28,2,2,0,0,0,.86-.71.89.89,0,0,0,.12-.42c.05-.24.09-.47.15-.71a.63.63,0,0,1,.21-.3.31.31,0,0,1,.25,0l.11,0a.56.56,0,0,0,0-.12l-.07-.08a1.85,1.85,0,0,0,.36-.73,6.34,6.34,0,0,0,.24-1.3,3.12,3.12,0,0,0,0-.43s0-.06,0-.1l-.09.07,0-.26a1.49,1.49,0,0,0,0-.21.43.43,0,0,1,0-.07s-.05,0-.06.06-.1.24-.14.36l0,.08-.06-.23L55.5,44s0,0-.06.07l-.14.3a.93.93,0,0,0,0-.1l-.06,0a.06.06,0,0,0,0,.06c0,.1-.08.21-.12.31L55,44.7s-.06.08-.11,0a.08.08,0,0,0-.13,0l-.13.2a.65.65,0,0,0,0,.13.33.33,0,0,1-.14.19.46.46,0,0,0-.15.16c-.16.27-.33.54-.47.81s-.15.4-.24.6a3.48,3.48,0,0,1-.17.33L53.17,47a19,19,0,0,1-1.65-1.31,4,4,0,0,1-.69-.67A4.39,4.39,0,0,1,50.25,44a8.94,8.94,0,0,1-.29-1,.32.32,0,0,0,0-.09l0,0,0,0a1.69,1.69,0,0,0,0,.23c0,.13,0,.25,0,.37,0-.08,0-.2-.15-.28s0,.08,0,.1,0,.26.07.39a.08.08,0,0,1,0,.07.83.83,0,0,0-.07-.13s0,0-.06,0a.19.19,0,0,0,0,.07,2.81,2.81,0,0,0,.1.31.24.24,0,0,0,0,.08h0l-.1-.05a.48.48,0,0,0,0,.12c0,.06,0,.12.06.19h0l-.1,0v.12a2.09,2.09,0,0,1,0,.25,1.94,1.94,0,0,0,.21,1.11,5.75,5.75,0,0,0,1.73,2.15,2.37,2.37,0,0,0,1,.46l0,0c-.13.15-.26.3-.38.46a.93.93,0,0,1-.48.27l-1,.37a1.33,1.33,0,0,0-.21.09c-.05,0-.07.06,0,.12a.17.17,0,0,1,0,.1.09.09,0,0,0,0,.14.44.44,0,0,1,.08.11c0,.08.12.08.19.1l.08,0Z"></path> </svg>