<svg id="Capa_1" data-name="Capa 1" xmlns="http://www.w3.org/2000/svg" viewBox="23.35 40.29 39.75 21.1">   <defs>     <style>       .cls-1 { fill: #fff; }     </style>   </defs>   <path class="cls-1" d="M62.86,50.23c-.36-.41-8.88-9.94-19.64-9.94s-19.29,9.53-19.65,9.94a.94.94,0,0,0,0,1.22c.36.41,8.89,9.94,19.65,9.94s19.28-9.53,19.64-9.94A.92.92,0,0,0,62.86,50.23ZM43.22,59.54c-8.41,0-15.62-6.62-17.68-8.7,2.06-2.07,9.27-8.7,17.68-8.7s15.62,6.63,17.67,8.7C58.84,52.92,51.64,59.54,43.22,59.54Z"></path>   <path class="cls-1" d="M42.71,46c-.39.53-1.08.77-1.53,1.25-.68.74-.4,1.68-.48,2.68-.09,1.2-2.07,1.75-2.33-1.08,0-.48-.94-.2-1.4,0a3.87,3.87,0,0,1-1.39.36,1.36,1.36,0,0,1-.76-.26,8.61,8.61,0,0,1,8-6.64,3.53,3.53,0,0,0,0,.92C42.92,44.08,43.32,45.08,42.71,46Z"></path>   <path class="cls-1" d="M38.94,57.59a1,1,0,0,1-.2.63,8.59,8.59,0,0,1-4.13-6.63,6.4,6.4,0,0,0,1.59,0,4.21,4.21,0,0,1,1.77.2c.26.1.53.32.53.6s-.34.5-.6.67a2.18,2.18,0,0,0-.78,1,1.55,1.55,0,0,0,0,1.23,3.46,3.46,0,0,0,1,1.07A1.79,1.79,0,0,1,38.94,57.59Z"></path>   <path class="cls-1" d="M51.86,50.84a8.63,8.63,0,0,1-8.37,8.63,1.26,1.26,0,0,1,.26-.67,3.2,3.2,0,0,1,1.91-1,6,6,0,0,0,2.09-.71,2.9,2.9,0,0,0,1-2.91A4.35,4.35,0,0,0,47,51.55a4.12,4.12,0,0,1-.72-.59.88.88,0,0,1-.19-.86c.18-.42.71-.52,1.17-.53a14.45,14.45,0,0,1,3.29.3,6.6,6.6,0,0,0,1.31.2A6.62,6.62,0,0,1,51.86,50.84Z"></path> </svg>