<svg id="Capa_1" data-name="Capa 1" xmlns="http://www.w3.org/2000/svg" viewBox="0 0 84.1 82.39">
  <defs>
    <style>
      .cls-1{fill:#fff;}
    </style>
  </defs>
  <path class="cls-1" d="M36.31,51.73a7.47,7.47,0,0,0,5.11-1.92,9,9,0,0,1,6-2.23,8.51,8.51,0,0,1,4.45,1.14l.6-7H31.26L32,50.4A6.87,6.87,0,0,0,36.31,51.73Z"/>
  <path class="cls-1" d="M47.45,49.14a7.51,7.51,0,0,0-5.11,1.91,9,9,0,0,1-6,2.23,8.53,8.53,0,0,1-4.13-1L33.34,65.6H50.43l1.32-15.14A6.92,6.92,0,0,0,47.45,49.14Zm-5.57,15.1a3.64,3.64,0,0,1-3.63-3.63c0-2,3.63-6.19,3.63-6.19s3.64,4.18,3.64,6.19A3.64,3.64,0,0,1,41.88,64.24Z"/>
</svg>
