<svg id="Capa_1" data-name="Capa 1" xmlns="http://www.w3.org/2000/svg" viewBox="14.54 20 14.38 15.34"><defs><style>.cls-1{fill:#294121;}</style></defs><path class="cls-1" d="M20.73,28.32c0,.45.19.74.56.74s.86-.56,1-1.26l.16-1.14a1.13,1.13,0,0,0-.35-.05,1.55,1.55,0,0,0-1.33,1.71"></path><path class="cls-1" d="M21.72,20a7.44,7.44,0,0,0-7.18,7.67,7.44,7.44,0,0,0,7.18,7.67,7.44,7.44,0,0,0,7.19-7.67A7.45,7.45,0,0,0,21.72,20m1.59,10a.9.9,0,0,1-1-.92h0a1.65,1.65,0,0,1-1.46.92c-.73,0-1.26-.57-1.26-1.56a2.67,2.67,0,0,1,2.64-2.8,3,3,0,0,1,1.34.3l-.34,2.22c-.11.71,0,1,.28,1.05.49,0,1.09-.65,1.09-2a2.56,2.56,0,0,0-2.69-2.78c-1.72,0-3.23,1.44-3.23,3.74a2.82,2.82,0,0,0,2.88,3.15,3.51,3.51,0,0,0,1.64-.38l.2.69a4.32,4.32,0,0,1-2.06.44,3.55,3.55,0,0,1-3.52-3.79,4.31,4.31,0,0,1,4.22-4.58,3.31,3.31,0,0,1,3.4,3.47c0,1.76-.93,2.86-2.14,2.86"></path></svg>