<svg id="Capa_1" data-name="Capa 1" xmlns="http://www.w3.org/2000/svg" viewBox="22.57 17.65 27.8 27.8"><defs><style>.cls-1{fill:#294121;}</style></defs><path class="cls-1" d="M36.47,17.65a13.9,13.9,0,1,0,13.9,13.9A13.9,13.9,0,0,0,36.47,17.65Zm4.12,7.47a.39.39,0,0,1-.39.39H38.27a1.54,1.54,0,0,0-1.54,1.55v2.71H40a.63.63,0,0,1,.62.7l-.23,1.86a.63.63,0,0,1-.62.54h-3v7.78c-.32,0-.64,0-1,0a10.66,10.66,0,0,1-2.12-.21V32.87H31.32a.38.38,0,0,1-.38-.38V30.16a.39.39,0,0,1,.38-.39h2.32V26.28A3.87,3.87,0,0,1,37.5,22.4h2.7a.39.39,0,0,1,.39.39Z"></path></svg>