<svg id="Capa_1" data-name="Capa 1" xmlns="http://www.w3.org/2000/svg" viewBox="22.84 16.28 29.1 29.1"><defs><style>.cls-1{fill:#294121;}</style></defs><path class="cls-1" d="M40.77,24.07q-3.37,0-6.75,0a3.27,3.27,0,0,0-.76.08,3.37,3.37,0,0,0-2.69,3.36c0,2.25,0,4.51,0,6.76A3.39,3.39,0,0,0,34,37.71H37.4c1.12,0,2.24,0,3.36,0a4.13,4.13,0,0,0,1.15-.19,3.32,3.32,0,0,0,2.3-3.25c0-2.26,0-4.51,0-6.77A3.59,3.59,0,0,0,44,26.38,3.34,3.34,0,0,0,40.77,24.07ZM37.4,35.27a4.38,4.38,0,1,1,4.38-4.38A4.37,4.37,0,0,1,37.4,35.27Zm4.41-7.72a1,1,0,0,1-1-1,1,1,0,0,1,1-1,1,1,0,1,1,0,2.06Z"></path><path class="cls-1" d="M37.42,28.18A2.71,2.71,0,1,0,40.1,30.9,2.71,2.71,0,0,0,37.42,28.18Z"></path><path class="cls-1" d="M37.39,16.28A14.55,14.55,0,1,0,51.94,30.83,14.56,14.56,0,0,0,37.39,16.28ZM45.09,37a4.56,4.56,0,0,1-4,2.23c-2.5,0-5,0-7.51,0h-.23a2.33,2.33,0,0,1-.53,0,5,5,0,0,1-2.74-1.65A4.83,4.83,0,0,1,29,35.23c0-.25-.07-.5-.11-.75V27.4c0-.22.05-.44.08-.66a4.91,4.91,0,0,1,1.85-3.23,5.06,5.06,0,0,1,3.32-1.12h6.34a7.59,7.59,0,0,1,1.07.07,4.83,4.83,0,0,1,2.9,1.45,5,5,0,0,1,1.45,3.65c0,2.22,0,4.43,0,6.65A4.8,4.8,0,0,1,45.09,37Z"></path></svg>