<svg id="Capa_1" data-name="Capa 1" xmlns="http://www.w3.org/2000/svg" viewBox="16.51 16.23 13.98 14.03"><defs><style>.cls-1{fill:#294121;fill-rule:evenodd;}</style></defs><path class="cls-1" d="M23.53,16.23a7,7,0,0,0-5.69,11.11.73.73,0,0,1,.08.74l-.81,1.78,2.32-.63a.69.69,0,0,1,.2,0,.79.79,0,0,1,.37.1,7,7,0,1,0,3.53-13.07M27.7,26a2.12,2.12,0,0,1-1.57,1.17,3.2,3.2,0,0,1-1.72-.28,7.5,7.5,0,0,1-1.49-.7,8.33,8.33,0,0,1-2.37-2.21,8.51,8.51,0,0,1-.55-.83,4.39,4.39,0,0,1-.53-1.22,3.19,3.19,0,0,1-.07-.54,2.23,2.23,0,0,1,.76-1.73,1,1,0,0,1,1.07-.16c.37.21.55.73.72,1.09a1.76,1.76,0,0,1,.23,1,1.84,1.84,0,0,1-.51.83.35.35,0,0,0,0,.47,5.63,5.63,0,0,0,2.8,2.4.32.32,0,0,0,.4-.09c.2-.26.41-.76.73-.89a1.44,1.44,0,0,1,1.24.28c.33.19.88.44,1,.85a.94.94,0,0,1-.07.59"></path></svg>