<svg id="Capa_1" data-name="Capa 1" xmlns="http://www.w3.org/2000/svg" viewBox="21 20.19 27.78 27.78"><defs><style>.cls-1{fill:#294121;}</style></defs><path class="cls-1" d="M34.89,20.19A13.89,13.89,0,1,0,48.78,34.08,13.89,13.89,0,0,0,34.89,20.19ZM41.5,31.88a.28.28,0,0,1-.28.27c-2.8-.08-3.58-1.37-3.58-1.37v6.6a4.68,4.68,0,1,1-5.23-4.65,5,5,0,0,1,.86,0,.27.27,0,0,1,.24.27v2a.26.26,0,0,1-.3.26,2.73,2.73,0,0,0-.57,0,2.2,2.2,0,0,0,.43,4.38,2.25,2.25,0,0,0,2.09-2.27v-11a.27.27,0,0,1,.27-.27h2.22a.27.27,0,0,1,.27.25,3.45,3.45,0,0,0,3.32,3.33.27.27,0,0,1,.26.26Z"></path></svg>