<svg id="Capa_1" data-name="Capa 1" xmlns="http://www.w3.org/2000/svg" viewBox="47.12 22.05 152.42 30.98"><defs><style>.cls-1{fill:#294121;}</style></defs><path class="cls-1" d="M92.53,32.5H87.94v11H86.79v-11H82.21V31.36H92.53Z"></path><path class="cls-1" d="M104,43.48H94.78V31.36h9V32.5H95.94v4.17h7.36v1.16H95.94v4.49h8Z"></path><path class="cls-1" d="M117.44,43.48h-1.37l-2.92-4.59a5.15,5.15,0,0,1-.56,0h-5.07v4.57h-1.14V31.36h6.39c3.48,0,4.43,1.75,4.43,3.77a3.42,3.42,0,0,1-2.81,3.59ZM116,35.13c0-1.61-.83-2.63-3.25-2.63h-5.25v5.26h5.25C115.21,37.76,116,36.74,116,35.13Z"></path><path class="cls-1" d="M130.58,43.48h-1.36l-2.93-4.59a5,5,0,0,1-.56,0h-5.07v4.57h-1.14V31.36h6.39c3.48,0,4.43,1.75,4.43,3.77a3.42,3.42,0,0,1-2.8,3.59Zm-1.42-8.35c0-1.61-.83-2.63-3.25-2.63h-5.25v5.26h5.25C128.35,37.76,129.16,36.74,129.16,35.13Z"></path><path class="cls-1" d="M141.49,40.36h-7.44l-1.48,3.12h-1.29L137,31.36h1.49l5.75,12.12H143ZM141,39.22l-3.18-6.76-3.19,6.76Z"></path><path class="cls-1" d="M160,40.36h-7.45l-1.47,3.12h-1.3l5.75-12.12H157l5.75,12.12h-1.3Zm-.54-1.14-3.19-6.76-3.18,6.76Z"></path><path class="cls-1" d="M174.47,42.32v1.16H163.83V42.32l8.93-9.82h-8.6V31.36h10.16V32.5l-8.94,9.82Z"></path><path class="cls-1" d="M187.41,31.36v7.13c0,3.91-2.13,5.23-5.27,5.23s-5.24-1.32-5.24-5.23V31.36H178v7.13c0,2.87,1.23,4.12,4.1,4.12s4.11-1.25,4.11-4.12V31.36Z"></path><path class="cls-1" d="M199.53,43.48h-9V31.36h1.15v11h7.86Z"></path><path class="cls-1" d="M77.2,52.39c-2.32.39-4.1-.12-5.19-2-4.18-7.08-8.32-14.19-12.36-21.35-1-1.76-.87-3.7.78-5.67C61,24.29,61.55,25,62,25.74c3.58,6.19,7.13,12.4,10.72,18.59Z"></path><path class="cls-1" d="M78.23,52.56c-3,1.07-5.65.3-7.08-2.15-4.08-7-8.12-13.95-12.06-21-1.41-2.54-.61-4.94,1.34-7.36,1,1.72,1.9,3.23,2.77,4.75q5,8.52,9.87,17.07Z"></path><path class="cls-1" d="M58,41.9C59.22,49.57,56.14,54,47.43,52.83,46.15,45.82,48.62,40.87,58,41.9Z"></path></svg>