<svg id="Capa_1" data-name="Capa 1" xmlns="http://www.w3.org/2000/svg" viewBox="0 0 94.65 99.21"><defs><style>.cls-1{fill:#fff;}</style></defs><path class="cls-1" d="M43.77,64.17A2.08,2.08,0,0,1,42,63c0-.08-.24-.13-.36-.14a5.17,5.17,0,0,1-4.83-4c-.08-.35-.11-.72-.16-1.11-.3,0-.64,0-1-.08a1.87,1.87,0,0,1-1.58-1.85c0-.86,0-1.72,0-2.58a1.8,1.8,0,0,1,1-1.69.43.43,0,0,0,.27-.46c0-1.87,0-3.73,0-5.6a8.35,8.35,0,0,1,7.23-8.29,1.22,1.22,0,0,0,.17-.07h11c.43.1.88.19,1.31.31a8.29,8.29,0,0,1,6,7.15,21.73,21.73,0,0,1,.07,2.29c0,1.18,0,2.36,0,3.54,0,.57,0,1,.6,1.38a1.55,1.55,0,0,1,.69,1.46c0,.82,0,1.64,0,2.46a1.92,1.92,0,0,1-2,2,1.34,1.34,0,0,0-1.16.37c-.16.2-.55.24-.85.28a9.76,9.76,0,0,1-1.1,0C53.78,66.46,43.77,64.17,43.77,64.17Zm7.74-.94c.19-.06-.32.44-.46.47-.85.15-1.7.33-2.56.44a.67.67,0,0,1-.84-.6c0-.37.29-.59.78-.64a12.51,12.51,0,0,0,1.63-.2,7.73,7.73,0,0,0,6-7.16c0-1.06,0-2.12,0-3.18s.21-1.43,1.29-1.77a.77.77,0,0,0,0-.15c0-1.64,0-3.28,0-4.91a4.74,4.74,0,0,0-.19-1.35A4.45,4.45,0,0,0,53.66,41c-.31-.07-.5-.06-.58.36a12.68,12.68,0,0,1-1.48,3.92.48.48,0,0,0,.06.68A19.23,19.23,0,0,0,55,48.89c.41.29.5.62.27,1a.64.64,0,0,1-1,.06c-.63-.47-1.27-.95-1.86-1.47s-1.13-1.13-1.72-1.72a14.18,14.18,0,0,1-4.48,4,14,14,0,0,1-5.68,1.78c-.19,3-.11,5.87,2.22,8.11a3.44,3.44,0,0,1,1.89-.22,1.89,1.89,0,0,1,.67,3.54A15.23,15.23,0,0,0,51.51,63.23ZM49.3,40.94c-2,0-4-.09-6,0a4.41,4.41,0,0,0-4.09,4.27c0,1.77,0,3.54,0,5.31,0,0,0,.05,0,0A2.86,2.86,0,0,1,40,51a.73.73,0,0,0,.74.22l.44-.07a12.74,12.74,0,0,0,10.15-8.27c.24-.61.39-1.27.6-1.94H50.61c-.29.78-.51,1.57-.86,2.3a11.48,11.48,0,0,1-8.23,6.5c-.51.12-.85,0-.94-.43s.15-.65.67-.77a10.28,10.28,0,0,0,7.54-6.15C49,41.91,49.13,41.42,49.3,40.94ZM59.9,51.3V45.08a4,4,0,0,0,0-.6,7.16,7.16,0,0,0-7.22-6.16H43.91a7.27,7.27,0,0,0-1.32.1,7.16,7.16,0,0,0-6,7.21v5.69L38,50.5v-.34c0-1.58,0-3.16,0-4.75a5.77,5.77,0,0,1,5.75-5.72h9.1a5.7,5.7,0,0,1,5.51,4.19,6.9,6.9,0,0,1,.23,1.7c0,1.67,0,3.35,0,4.92Zm-2.59.61v5.16h1.3V51.91Zm-19.38,0v5.15h1.31V51.91Zm4,9.64a9.33,9.33,0,0,1-2.12-3.27l-1.84.1A3.76,3.76,0,0,0,42,61.55Zm-5.28-9c-.25,0-.46,0-.67,0a.64.64,0,0,0-.67.7c0,.84,0,1.69,0,2.53a.66.66,0,0,0,.69.68h.65Zm23.2,3.92h.63c.42,0,.68-.22.7-.63,0-.89,0-1.79,0-2.68a.59.59,0,0,0-.62-.6c-.23,0-.45,0-.68,0,0,.12,0,.19,0,.27ZM44.08,61.57h-.36a.66.66,0,0,0-.07,1.31,2.82,2.82,0,0,0,.41,0c.71,0,1-.2,1-.68S44.77,61.57,44.08,61.57Z"/><path class="cls-1" d="M48.28,56.45c1,0,2,0,3,0,.67,0,.92.34.76,1a3.92,3.92,0,0,1-7.57-.09c-.13-.55.12-.88.7-.89C46.22,56.44,47.25,56.45,48.28,56.45ZM46,57.72a2.71,2.71,0,0,0,4.64,0Z"/><path class="cls-1" d="M52.14,51.87c-.23,0-.45,0-.68,0a.57.57,0,0,1-.56-.57.58.58,0,0,1,.55-.63,10.9,10.9,0,0,1,1.4,0,.59.59,0,0,1,.56.62.6.6,0,0,1-.59.59c-.22,0-.45,0-.68,0Z"/><path class="cls-1" d="M45,53.53a2.72,2.72,0,0,1,0,.28.62.62,0,0,1-.62.65.64.64,0,0,1-.61-.66c0-.16,0-.32,0-.48,0-.44.27-.74.63-.74a.68.68,0,0,1,.62.71v.24Z"/><path class="cls-1" d="M52.78,53.58a1.58,1.58,0,0,1,0,.37.58.58,0,0,1-.63.5.55.55,0,0,1-.56-.52,3.57,3.57,0,0,1,0-.8.57.57,0,0,1,.59-.54.59.59,0,0,1,.61.53A2.26,2.26,0,0,1,52.78,53.58Z"/></svg>