<svg id="Capa_1" data-name="Capa 1" xmlns="http://www.w3.org/2000/svg" viewBox="0 0 94.65 99.21"><defs><style>.cls-1{fill:#fff;fill-rule:evenodd;}</style></defs><path class="cls-1" d="M52.43,53.91c-.38-.21-2.25-1.22-2.6-1.36s-.61-.22-.88.16-1.05,1.22-1.28,1.47-.47.28-.85.07a10.76,10.76,0,0,1-3-2,11.59,11.59,0,0,1-2.05-2.77c-.22-.39,0-.59.2-.78s.4-.44.6-.66a2.63,2.63,0,0,0,.41-.63.71.71,0,0,0,0-.68c-.09-.19-.8-2.13-1.09-2.92s-.62-.67-.85-.68-.48-.05-.74-.06a1.4,1.4,0,0,0-1,.45,4.32,4.32,0,0,0-1.48,3.18,7.56,7.56,0,0,0,1.43,4.06c.19.27,2.52,4.4,6.4,6.1S49.46,58,50.17,58a3.9,3.9,0,0,0,2.69-1.74,3.19,3.19,0,0,0,.29-1.83c-.09-.17-.34-.27-.72-.48Zm-7.12,9.18a12.58,12.58,0,0,1-7-2.09l-4.85,1.56,1.58-4.69a12.63,12.63,0,1,1,10.22,5.22Zm0-27.81a15.19,15.19,0,0,0-13,23l-2.74,8.14L38,63.75a15.18,15.18,0,1,0,7.33-28.47Z"/></svg>