<svg id="Capa_1" data-name="Capa 1" xmlns="http://www.w3.org/2000/svg" viewBox="54.11 27.43 66.07 62.14"><defs><style>.cls-1{fill:#fff;}</style></defs><path class="cls-1" d="M54.13,59.33c.81-.82,1.6-1.66,2.42-2.47a.79.79,0,0,1,1.16,0,.76.76,0,0,1,0,1.19c-.72.74-1.44,1.47-2.18,2.18-.47.44-.84.36-1.42-.23Z"></path><path class="cls-1" d="M86.2,29.47c-.43.47-.88,1-1.35,1.44s-.92.5-1.3.15-.36-.84.14-1.35l1.77-1.77c.69-.68,1-.69,1.73,0L99.81,40.56,119.5,60.25c.9.9.9,1.11,0,2l-4,4c-.69.69-1,.69-1.72,0Q100.35,52.74,86.89,39.26a5.09,5.09,0,0,1-.52-.7c-.47.51-.81.9-1.17,1.26a.86.86,0,0,1-1.26.07c-.37-.37-.35-.8.08-1.25s1.08-1.1,1.64-1.64A.84.84,0,0,1,87,37c.16.14.3.3.45.45q13.32,13.31,26.62,26.62c.18.18.34.39.44.51l3.4-3.4Z"></path><path class="cls-1" d="M92.3,87.75V87c0-4.69,0-9.37,0-14A6.06,6.06,0,0,0,90,68c-.52-.42-.62-.86-.31-1.27s.81-.48,1.35,0a7.38,7.38,0,0,1,3,5.88c0,4.79,0,9.58,0,14.37v.73c.08.06.11.1.15.1,2.66,0,5.33.08,8,0A5.47,5.47,0,0,0,107,82.39c0-5.72,0-11.43,0-17.14,0-.26-.05-.58.08-.75s.56-.6.81-.56.54.42.77.69c.07.1,0,.29,0,.45,0,5.62,0,11.25,0,16.88a7.26,7.26,0,0,1-5.91,7.32,8.9,8.9,0,0,1-1.79.17H90.1a3.38,3.38,0,0,1-.45,0c-.5,0-.86-.28-.86-.84a.8.8,0,0,1,.87-.84c.64,0,1.29,0,1.93,0Z"></path><path class="cls-1" d="M78.66,87.75c0-.71,0-1.35,0-2s.31-1.07.82-1.09.86.37.87,1.1,0,1.72,0,2.57-.28,1.09-1.07,1.11-1.59,0-2.38,0-1-.32-1-.84.35-.84,1-.86S78,87.75,78.66,87.75Z"></path><path class="cls-1" d="M58.45,65.56c-.18.21-.32.53-.55.62a1,1,0,0,1-.88-.09c-.81-.73-1.58-1.51-2.32-2.31a.73.73,0,0,1,.08-1.09.7.7,0,0,1,1-.08c.83.77,1.62,1.59,2.41,2.4A2.38,2.38,0,0,1,58.45,65.56Z"></path><path class="cls-1" d="M71.14,89.57c-.92-.24-1.86-.46-2.77-.74a.8.8,0,0,1-.6-1.09c.17-.52.59-.64,1.21-.48a20.39,20.39,0,0,0,2.3.47c.74.1,1.14.36,1.12.89S71.93,89.48,71.14,89.57Z"></path><path class="cls-1" d="M78.56,71.81c.4-1,.76-2,1.19-3a.76.76,0,0,1,1.14-.35c.47.26.51.66.32,1.16-.3.81-.57,1.64-.8,2.48-.16.55-.48.87-1,.81s-.74-.43-.71-1Z"></path><path class="cls-1" d="M66.1,84.38c-.23.24-.43.56-.71.69a.71.71,0,0,1-1-.41,6.83,6.83,0,0,1-.44-3.6c0-.25.51-.61.81-.63a1,1,0,0,1,.76.6c.17,1.07.22,2.16.31,3.24Z"></path><path class="cls-1" d="M65.6,74.53c0,.5,0,1,0,1.48a.76.76,0,0,1-.81.87A.75.75,0,0,1,64,76.1c0-1,0-2.11,0-3.16a.83.83,0,0,1,1.65,0C65.61,73.5,65.6,74,65.6,74.53Z"></path><path class="cls-1" d="M80.34,78.8c0,.52,0,1,0,1.54a.83.83,0,0,1-1.66,0c0-1.06,0-2.13,0-3.2a.75.75,0,0,1,.86-.76.78.78,0,0,1,.79.84C80.36,77.78,80.34,78.29,80.34,78.8Z"></path><path class="cls-1" d="M65.6,66.3c0,.5,0,1,0,1.48a.75.75,0,0,1-.77.85.76.76,0,0,1-.88-.8q0-1.55,0-3.09a.78.78,0,0,1,.87-.82.76.76,0,0,1,.78.84C65.61,65.27,65.6,65.79,65.6,66.3Z"></path><path class="cls-1" d="M81.83,42.91a4.22,4.22,0,0,1-.44.71c-.67.69-1.35,1.38-2,2.05a.82.82,0,0,1-1.25,0,.78.78,0,0,1,0-1.19c.7-.72,1.39-1.46,2.15-2.12a1.08,1.08,0,0,1,.91-.18C81.45,42.3,81.61,42.65,81.83,42.91Z"></path><path class="cls-1" d="M61.11,63.53c-.19-.14-.53-.26-.62-.48a1,1,0,0,1,0-.87c.74-.83,1.54-1.61,2.35-2.38a.66.66,0,0,1,1,.06c.18.27.29.84.14,1-.75.87-1.6,1.66-2.42,2.46C61.53,63.44,61.36,63.45,61.11,63.53Z"></path><path class="cls-1" d="M71.91,51.06a3.8,3.8,0,0,1,.43-.73c.66-.7,1.35-1.38,2-2a.86.86,0,0,1,1.25-.08.8.8,0,0,1-.06,1.24c-.68.71-1.37,1.43-2.1,2.08a1.17,1.17,0,0,1-.91.19C72.32,51.65,72.15,51.31,71.91,51.06Z"></path><path class="cls-1" d="M72.39,43c-.22-.18-.55-.31-.64-.54a1.07,1.07,0,0,1,.08-.88c.73-.81,1.51-1.58,2.3-2.32a.82.82,0,0,1,1.16,1.14c-.75.8-1.53,1.56-2.31,2.32A2.52,2.52,0,0,1,72.39,43Z"></path><path class="cls-1" d="M66.54,48.85c-.21-.16-.54-.3-.62-.52a1,1,0,0,1,.08-.87c.72-.81,1.5-1.58,2.3-2.33a.73.73,0,0,1,1.09,0,.75.75,0,0,1,.07,1.1c-.74.8-1.53,1.56-2.31,2.31A2.25,2.25,0,0,1,66.54,48.85Z"></path><path class="cls-1" d="M77.34,36.33a5.43,5.43,0,0,1,.49-.75c.64-.66,1.29-1.31,2-2a.87.87,0,0,1,1.3-.1A.82.82,0,0,1,81,34.77c-.69.7-1.36,1.42-2.1,2.07A1.16,1.16,0,0,1,78,37C77.74,37,77.58,36.6,77.34,36.33Z"></path><path class="cls-1" d="M60.86,54.62c-.7,0-1.18-.76-.77-1.23a25.86,25.86,0,0,1,2.46-2.45,1,1,0,0,1,1,.14,1,1,0,0,1,.1,1c-.74.85-1.57,1.64-2.38,2.43A1,1,0,0,1,60.86,54.62Z"></path><path class="cls-1" d="M66.92,57.72c-.21-.17-.54-.32-.62-.55a1,1,0,0,1,.11-.88c.72-.8,1.49-1.55,2.27-2.29a.68.68,0,0,1,1.07,0,1.15,1.15,0,0,1,.12,1c-.74.86-1.58,1.64-2.4,2.43C67.36,57.61,67.17,57.63,66.92,57.72Z"></path><path class="cls-1" d="M84.7,89.47a9.15,9.15,0,0,1-1,0c-.45-.08-.8-.39-.69-.84a1.15,1.15,0,0,1,.68-.77,5.28,5.28,0,0,1,1.9,0,1,1,0,0,1,.66.77c0,.27-.35.64-.64.79A2.37,2.37,0,0,1,84.7,89.47Z"></path><path class="cls-1" d="M84.66,67c-.6,0-1-.24-1-.69a1.17,1.17,0,0,1,.54-.88,3.31,3.31,0,0,1,1.55-.27A.79.79,0,0,1,86,66.65,5.28,5.28,0,0,1,84.66,67Z"></path></svg>