<svg id="Capa_1" data-name="Capa 1" xmlns="http://www.w3.org/2000/svg" viewBox="64.66 19.77 45.65 60.32"><defs><style>.cls-1{fill:#fff;}</style></defs><path class="cls-1" d="M103.81,78.28h4.7c-.22-2.54-.42-5-.64-7.53-.06-.7.19-1.15.74-1.23s.94.3,1,1c.19,2.09.35,4.17.53,6.26,0,.66.09,1.32.15,2,.1,1-.15,1.31-1.2,1.31H65.66c-.73,0-1-.33-1-1,.21-1.56.47-3.11.71-4.67q.83-5.36,1.67-10.73c.62-4,1.23-8,1.89-12a1.63,1.63,0,0,1,.64-.86c1.86-1.43,3.75-2.82,5.61-4.24a1.26,1.26,0,0,0,.45-.73c.23-2.21.42-4.42.61-6.63.24-2.7.48-5.41.71-8.11,0,0,0-.08,0-.12-.22-1.66.7-2.63,1.91-3.59,2.95-2.35,5.81-4.82,8.71-7.24A1,1,0,0,1,89,20Q94,24.17,99,28.3a1.63,1.63,0,0,1,.64,1.21c.11,1.61.27,3.22.45,4.82a1.16,1.16,0,0,0,.38.71c2,1.65,3.9,3.29,5.87,4.91a1.82,1.82,0,0,1,.79,1.39c.12,1.9.31,3.8.46,5.7a.87.87,0,0,1-.79,1.06.91.91,0,0,1-1-.93c-.14-1.61-.28-3.23-.39-4.84a1.76,1.76,0,0,0-.7-1.42c-1.46-1.16-2.87-2.38-4.46-3.7C101.46,51,102.64,64.64,103.81,78.28ZM89.28,22.52V78.27H102c-.25-3-.5-6-.75-9L100.66,62c-.24-2.71-.47-5.41-.71-8.12s-.44-5.2-.67-7.8-.47-5.37-.7-8-.42-5.21-.68-7.81a1.56,1.56,0,0,0-.5-.92C96,28.05,94.48,26.84,93,25.62Zm-13.8,26c-1.66,1.24-3.17,2.37-4.66,3.51a.81.81,0,0,0-.23.48c-.47,3-.93,6-1.4,9q-.84,5.4-1.69,10.79c-.31,2-.61,4-.93,6h6.35C73.77,68.38,74.62,58.54,75.48,48.51Zm-.39,25.15c4.14-2.65,8.16-5.21,12.16-7.79a.81.81,0,0,0,.24-.57c0-1.09,0-2.19,0-3.29V58.6l-.61.35c-3.23,2.06-6.44,4.16-9.7,6.16-1,.62-1.77,1.24-1.59,2.53,0,0,0,0,0,.06C75.43,69.64,75.26,71.58,75.09,73.66Zm12.38-5.83c-4.16,2.66-8.23,5.25-12.29,7.86a.64.64,0,0,0-.28.43c-.1.71-.15,1.43-.22,2.16H87.47Zm0-18.42a1.2,1.2,0,0,0-.23.05L76.86,56.12a.76.76,0,0,0-.31.47c-.21,2.39-.41,4.78-.61,7.21a2.3,2.3,0,0,0,.25-.09q5.52-3.52,11-7.06a.67.67,0,0,0,.27-.43C87.5,54,87.5,51.71,87.5,49.41ZM76.78,54l.26-.11c3.39-2.16,6.77-4.31,10.15-6.49a.8.8,0,0,0,.29-.59c0-1.26,0-2.53,0-3.79V40.12l-.66.39c-3,1.88-5.89,3.76-8.85,5.63a1.1,1.1,0,0,0-.62,1c0,.6-.11,1.19-.16,1.79C77.06,50.62,76.92,52.29,76.78,54Zm.85-9.8a1.78,1.78,0,0,0,.3-.12c3.09-2,6.19-3.93,9.27-5.92a.9.9,0,0,0,.28-.66c0-1.7,0-3.41,0-5.11V30.94a1.57,1.57,0,0,0-.2,0c-2.92,1.86-5.84,3.71-8.74,5.59a.8.8,0,0,0-.3.55c-.18,1.75-.33,3.5-.48,5.26C77.73,43,77.68,43.56,77.63,44.22Zm.82-9.68c3-1.92,5.88-3.74,8.73-5.58a.91.91,0,0,0,.3-.66c0-1.49,0-3,0-4.47V22.6c-.12,0-.17,0-.19,0q-4.09,3.41-8.16,6.8a.76.76,0,0,0-.27.46C78.73,31.4,78.6,32.9,78.45,34.54Z"></path><path class="cls-1" d="M109,63.87c0,.14,0,.29,0,.43a.81.81,0,0,1-.74.91.79.79,0,0,1-1-.69,25.85,25.85,0,0,1-.24-2.78.8.8,0,0,1,.78-.83.78.78,0,0,1,.91.67c.12.76.17,1.52.25,2.28Z"></path><path class="cls-1" d="M106.44,54.13c-.07-1.29.16-1.69.77-1.72s.9.41,1,1.33c0,.62.11,1.24.14,1.86s-.27,1-.81,1-.87-.34-.93-1S106.46,54.44,106.44,54.13Z"></path></svg>