<svg id="Capa_1" data-name="Capa 1" xmlns="http://www.w3.org/2000/svg" viewBox="51.63 16.88 69.47 69.45"><defs><style>.cls-1{fill:#fff;}</style></defs><path class="cls-1" d="M64.1,76.38H76.48V53.28c0-1.25.37-1.63,1.59-1.63H94.72c1.18,0,1.57.39,1.57,1.56,0,4,0,7.95,0,11.92,0,.57-.13,1.1-.71,1.23a1.74,1.74,0,0,1-1.28-.13A1.76,1.76,0,0,1,93.84,65c0-3.33,0-6.65,0-10v-.87H79v23c0,1.38-.34,1.72-1.75,1.72h-14c-1.19,0-1.58-.39-1.58-1.56,0-2.25,0-4.49,0-6.74a1.67,1.67,0,0,1,1-1.7c.9-.44,1.77-.93,2.77-1.47-1-.73-1.91-1.43-2.86-2.05a2,2,0,0,1-1-1.86c0-3.49,0-7,0-10.45v-.89a7.11,7.11,0,0,0-.58.51l-3.17,3.17c-1,1-1.54,1-2.54,0l-3-3c-.88-.88-.88-1.42,0-2.3l8.2-8.22,24.55-24.6c1.08-1.08,1.56-1.08,2.63,0L98,28.1c.19.2.36.43.54.64l.19-.08v-2c0-1.5,0-3,0-4.49,0-1,.43-1.44,1.46-1.44q3.49,0,7,0c1.06,0,1.47.42,1.47,1.51,0,5.22,0,10.43,0,15.64a2,2,0,0,0,.62,1.55c3.69,3.65,7.34,7.33,11,11,1.1,1.1,1.09,1.54,0,2.63s-2,2-3,3c-.81.8-1.38.8-2.19,0-1.27-1.25-2.52-2.51-3.88-3.86,0,.3,0,.51,0,.71v7.28c0,.94-.43,1.43-1.23,1.44s-1.24-.49-1.25-1.41c0-3.31,0-6.61,0-9.91a1.44,1.44,0,0,0-.25-.91c-2.3-2.33-4.63-4.63-7-7-.7.93-1.42,1.84-2.08,2.78a.83.83,0,0,0,.11.72c.86,1.2,1.74,2.37,2.64,3.54A1.67,1.67,0,0,1,102.4,51c-.4,1.49-.75,3-1.14,4.49-.23.89-.81,1.27-1.57,1.07s-1.06-.83-.85-1.72c.29-1.2.62-2.39.87-3.6a1.48,1.48,0,0,0-.19-1c-.91-1.28-1.88-2.52-2.81-3.79a1.31,1.31,0,0,1,0-1.94c1-1.3,1.93-2.6,2.88-3.87L86.28,27.41l-.52.49c-2.11,2.12-4.24,4.23-6.32,6.37A1.74,1.74,0,0,0,79,35.4c0,2.76,0,5.52,0,8.28,0,1.29-.11,1.44-1.33,1.93l-4.36,1.75c.62,1.24,1.22,2.43,1.8,3.62a1.21,1.21,0,0,1-.45,1.74,1.19,1.19,0,0,1-1.75-.55c-.44-.82-.84-1.65-1.31-2.57a4.55,4.55,0,0,0-.34.53L69,54.48c-.45.88-1.08,1.12-1.82.73s-.85-1-.43-1.86c1.16-2.32,2.3-4.66,3.51-7a2.26,2.26,0,0,1,1-.94c1.51-.67,3-1.26,4.58-1.85a.74.74,0,0,0,.57-.84c0-1.78,0-3.56,0-5.47-.25.21-.42.34-.57.49-3.8,3.8-7.59,7.59-11.36,11.41a1.68,1.68,0,0,0-.44,1.06c0,4.16,0,8.31,0,12.47a1.14,1.14,0,0,0,.57,1.06q3.73,2.63,7.43,5.3c.72.52.88,1.07.54,1.71a1.21,1.21,0,0,1-1.84.44c-.88-.59-1.71-1.25-2.6-1.81a1.12,1.12,0,0,0-.94-.09c-.93.43-1.83.94-2.72,1.45-.18.1-.4.31-.41.48C64.08,73,64.1,74.65,64.1,76.38ZM118,51.7,86.39,20.27,54.77,51.7l1.85,1.83.55-.53Q71.1,39,85.05,25.06c1.12-1.12,1.56-1.12,2.68,0Q100,37.3,112.16,49.55l4,4ZM101.25,23.19c0,2.66,0,5.23,0,7.81a1.22,1.22,0,0,0,.38.7c.84.87,1.7,1.71,2.55,2.57.63.63,1.24,1.27,2,2V23.19Z"></path><path class="cls-1" d="M98.07,73c.36-.41.69-.84,1.08-1.21a1.24,1.24,0,0,1,1.77,1.74c-1.24,1.28-2.49,2.54-3.78,3.77a1.16,1.16,0,0,1-1.73,0q-1.89-1.83-3.72-3.72a1.19,1.19,0,0,1,0-1.73,1.21,1.21,0,0,1,1.79,0c.54.51,1,1.08,1.65,1.74a12.44,12.44,0,0,1,2.17-5.11,11.17,11.17,0,0,1,18.57,1.14c.52.91.43,1.58-.29,2s-1.32.18-1.89-.74A8.63,8.63,0,0,0,98.1,72.23c-.09.21-.14.43-.21.65Z"></path><path class="cls-1" d="M117.28,76.78c-.87,4.17-3,7.09-6.82,8.7a11.14,11.14,0,0,1-13.72-4.39c-.53-.84-.46-1.51.2-2s1.34-.26,1.92.62a8.65,8.65,0,0,0,15.22-1c.11-.24.2-.48.29-.72a1,1,0,0,0,0-.62c-.36.37-.7.76-1.07,1.11a1.25,1.25,0,1,1-1.75-1.79c1.18-1.2,2.36-2.39,3.56-3.56a1.26,1.26,0,0,1,2,0c1.18,1.15,2.34,2.32,3.5,3.5a1.23,1.23,0,0,1,.12,1.84,1.26,1.26,0,0,1-1.91-.09C118.33,77.93,117.87,77.41,117.28,76.78Z"></path></svg>