<svg id="Capa_1" data-name="Capa 1" xmlns="http://www.w3.org/2000/svg" viewBox="67.31 33.9 49.83 49.82"><defs><style>.cls-1{fill:#fff;}</style></defs><path class="cls-1" d="M117.12,58.85V79.07a4.42,4.42,0,0,1-4.63,4.64c-13.51,0-27,0-40.51,0A4.65,4.65,0,0,1,67.31,79q.06-20.24,0-40.45A4.66,4.66,0,0,1,72,33.9c13.5.05,27,0,40.5,0a4.43,4.43,0,0,1,4.63,4.65Zm-48.9,0V79.7a2.84,2.84,0,0,0,3.11,3.12h41.76a2.85,2.85,0,0,0,3.14-3.15V38a2.84,2.84,0,0,0-3.14-3.14H71.38A2.84,2.84,0,0,0,68.22,38Z"></path><path class="cls-1" d="M92.2,80.16H72.92a1.8,1.8,0,0,1-2-2q0-19.31,0-38.61a1.78,1.78,0,0,1,2-2h38.66a1.78,1.78,0,0,1,2,2V78.11a1.79,1.79,0,0,1-2,2Zm20.43-41.73H71.84V79.22h40.79Z"></path><path class="cls-1" d="M85,68.49v4.18a2,2,0,0,1-2.15,2.14H81a2,2,0,0,1-2-2V68.49H76.87a1.58,1.58,0,0,1-1.61-2.4c1-2.54,2-5.07,3-7.62a2.88,2.88,0,0,0,.19-1c0-1.2,0-2.42.11-3.6a3.5,3.5,0,0,1,3.65-3,3.59,3.59,0,0,1,3.33,3.47,1.61,1.61,0,0,1,0,.22,12.4,12.4,0,0,0,1.29,6.69c.72,1.56,1.29,3.19,1.91,4.78a1.58,1.58,0,0,1-1.63,2.39Zm2-1.78c-.08-.24-.14-.41-.21-.57-1-2.41-1.91-4.8-2.83-7.22a4.31,4.31,0,0,1-.26-1.34c0-1,0-2.11,0-3.16a1.65,1.65,0,0,0-1.28-1.61,1.72,1.72,0,0,0-2.11,1.63c0,1.05,0,2.11,0,3.16A4.09,4.09,0,0,1,80,58.94c-.83,2.17-1.7,4.33-2.55,6.49-.16.41-.31.82-.49,1.28h2.62c1,0,1.2.25,1.2,1.22,0,1.52,0,3,0,4.55,0,.17.16.47.27.48.69,0,1.39,0,2.14,0V67.74c0-.74.31-1,1.06-1Z"></path><path class="cls-1" d="M98.46,68.27c0-1.5,0-3,0-4.5a.58.58,0,0,0-.33-.61,2.3,2.3,0,0,1-1.21-2.11c0-2.39,0-4.78,0-7.17a2.33,2.33,0,0,1,2.27-2.41c2.16-.06,4.33-.06,6.49,0a2.33,2.33,0,0,1,2.3,2.39c0,2.4,0,4.81,0,7.22a2.27,2.27,0,0,1-1.19,2.06.63.63,0,0,0-.35.66v8.77a2,2,0,0,1-2.26,2.25h-3.66a2,2,0,0,1-2.06-2C98.45,71.27,98.46,69.77,98.46,68.27Zm1.8-.64c0,1.63,0,3.26,0,4.89,0,.39.12.51.51.51,1,0,2.07,0,3.11,0,.75,0,.75,0,.75-.75q0-4.69,0-9.39c0-.81.16-1,.94-1.17a.64.64,0,0,0,.58-.69V54a.64.64,0,0,0-.72-.71h-6a.62.62,0,0,0-.7.68V61a.64.64,0,0,0,.55.67c.83.18,1,.35,1,1.2C100.27,64.48,100.26,66.05,100.26,67.63Z"></path><path class="cls-1" d="M93.11,58.81V73.53c0,.17,0,.34,0,.5a.89.89,0,0,1-1.77,0c0-.11,0-.22,0-.33V43.94a1.68,1.68,0,0,1,0-.39.83.83,0,0,1,.84-.73.86.86,0,0,1,.91.72,2.77,2.77,0,0,1,0,.5Z"></path><path class="cls-1" d="M102.45,50.26a3.72,3.72,0,1,1,3.73-3.75A3.73,3.73,0,0,1,102.45,50.26Zm1.9-3.7a1.91,1.91,0,1,0-3.81,0,1.91,1.91,0,1,0,3.81,0Z"></path><path class="cls-1" d="M85.34,46.22A3.35,3.35,0,1,1,82,42.83,3.35,3.35,0,0,1,85.34,46.22ZM82,47.73a1.54,1.54,0,1,0-1.53-1.55A1.53,1.53,0,0,0,82,47.73Z"></path></svg>