<svg id="Capa_1" data-name="Capa 1" xmlns="http://www.w3.org/2000/svg" viewBox="56.5 27 54.67 54.67"><defs><style>.cls-1{fill:#fff;}</style></defs><path class="cls-1" d="M111.17,54.41V80.47c0,1-.15,1.2-1.19,1.2H57.71c-1.08,0-1.21-.14-1.21-1.24V28.23c0-1.09.13-1.23,1.22-1.23h52.2c1.12,0,1.25.13,1.25,1.27ZM58,68.25v12H74.33v-12H71.91c-.82,0-1.64,0-2.46,0-.48,0-.87-.16-.87-.69s.35-.72.85-.69H91.32c0-1.07,0-2,0-3,0-.5.14-.94.7-1s.74.45.74,1c0,1,0,2,0,3,0,1.28-.1,1.38-1.35,1.38H75.78v12H91.32V73.39c0-.49.22-.85.74-.83s.68.36.69.82v6.81h17V47h-17v9.42c0,.22,0,.49-.06.65s-.44.49-.67.49-.48-.29-.66-.51,0-.35,0-.52V40.54a2.43,2.43,0,0,1,0-.27c0-.46.23-.78.72-.77s.7.35.7.8c0,1.49,0,3,0,4.47v.71h16.94v-17H92.75v4.85c0,1-.2,1.32-.74,1.31s-.69-.35-.69-1.28V28.48H82.66V56.21c0,.24.07.53,0,.72a1.22,1.22,0,0,1-.64.59c-.4.09-.66-.19-.68-.62,0-.23,0-.45,0-.67V28.46H58V66.87H62.7c.45,0,.73.2.75.66s-.25.69-.7.71H58Z"></path></svg>