<svg id="Capa_1" data-name="Capa 1" xmlns="http://www.w3.org/2000/svg" viewBox="57.3 27.9 59.99 60"><defs><style>.cls-1{fill:#fff;}</style></defs><path class="cls-1" d="M117.28,51.1c-.67,1-1.3,2-2,2.93a2.35,2.35,0,0,1-2.23.81V85.2a2.4,2.4,0,0,1-1.72,2.61,2.7,2.7,0,0,1-.75.09H92.16c-.87,0-1.37-.43-1.37-1.16s.49-1.18,1.36-1.18h18.47V84.9q0-15.5,0-31a1,1,0,0,0-.43-.93Q98.92,44.73,87.68,36.45a.58.58,0,0,0-.81,0Q75.6,44.74,64.32,53a.83.83,0,0,0-.41.76q0,15.64,0,31.29c0,.14,0,.27,0,.49H82.39a1.22,1.22,0,0,1,1.25.67,1.16,1.16,0,0,1-1.13,1.67h-6c-4.1,0-8.2,0-12.3,0a2.54,2.54,0,0,1-2.66-2.67q0-12.39,0-24.78V54.91a9.6,9.6,0,0,1-1.17-.18c-1-.3-3-3-3.08-4a2.39,2.39,0,0,1,1.09-2.14l12.51-9.18L85.41,28.69c.4-.29.85-.53,1.28-.79h1.17c.47.3,1,.56,1.42.89l7.79,5.7c.12.09.24.15.45.28,0-.73,0-1.35,0-2a2.4,2.4,0,0,1,2.59-2.54c1.84,0,3.67,0,5.51,0a2.4,2.4,0,0,1,2.63,2.61c0,3.08,0,6.17,0,9.25a1,1,0,0,0,.49,1c2.32,1.69,4.62,3.4,6.94,5.08a4.25,4.25,0,0,1,1.61,1.78Zm-2.38-.54c-.19-.15-.33-.27-.49-.38q-13.25-9.72-26.47-19.46a.94.94,0,0,0-1.34,0Q75.41,39,64.19,47.2l-4.55,3.35,1.41,1.92.71-.51L86.21,34c.93-.68,1.21-.68,2.13,0l18.74,13.76,6.42,4.7Zm-15-17.88c0,1.27,0,2.48,0,3.68a.8.8,0,0,0,.34.48l5.23,3.85a3.69,3.69,0,0,0,.35.19v-8.2Z"></path><path class="cls-1" d="M88.44,86.72a1.14,1.14,0,0,1-1.17,1.18,1.17,1.17,0,1,1,1.17-1.18Z"></path><path class="cls-1" d="M87.17,58.6a10.34,10.34,0,0,1,6.59,2.31,1.13,1.13,0,0,1,.43,1.44A1.16,1.16,0,0,1,92.9,63a2.09,2.09,0,0,1-.67-.33,8.13,8.13,0,0,0-9.94-.12,1.2,1.2,0,1,1-1.39-1.92A10.41,10.41,0,0,1,87.17,58.6Z"></path><path class="cls-1" d="M87.24,63.29a5.62,5.62,0,0,1,3.54,1.24,1.18,1.18,0,0,1,.36,1.73,1.22,1.22,0,0,1-1.77.17,3.43,3.43,0,0,0-4.24-.11,1.2,1.2,0,0,1-1.75-.25,1.18,1.18,0,0,1,.43-1.71A5.71,5.71,0,0,1,87.24,63.29Z"></path><path class="cls-1" d="M88.35,69.18a1.14,1.14,0,0,1-1.21,1.14,1.17,1.17,0,1,1,0-2.34A1.15,1.15,0,0,1,88.35,69.18Z"></path></svg>